<svg width="503" height="423" viewBox="0 0 503 423" fill="#D9D9D9" xmlns="http://www.w3.org/2000/svg">
<path d="M293.535 364.472C285.412 357.721 273.837 353.5 260.989 353.5C236.412 353.5 216.489 368.946 216.489 388C216.489 407.054 236.412 422.5 260.989 422.5C282.899 422.5 301.11 410.225 304.805 394.061C359.312 377.715 403.951 337.386 427.316 284.857C469.257 282.367 502.5 247.566 502.5 205C502.5 163.614 471.074 129.568 430.783 125.424C401.881 51.8681 332.052 0 250.5 0C168.883 0 99.007 51.9513 70.1477 125.601C30.6131 130.456 0 164.153 0 205C0 249.183 35.8172 285 80 285C104.008 285 103.179 261.278 102.038 228.63V228.629C101.777 221.161 101.5 213.225 101.5 205C101.5 194.47 102.288 184.416 103.01 175.208C104.487 156.358 105.687 141.057 99.2767 132.492C124.966 73.1404 183.01 31.7368 250.5 31.7368C318.503 31.7368 376.917 73.7727 402.304 133.849C396.936 142.621 398.088 157.316 399.49 175.208C400.212 184.416 401 194.47 401 205C401 213.225 400.723 221.16 400.462 228.628V228.63C399.895 244.85 399.405 258.867 402 268.866C382.067 315.441 342.246 351.063 293.535 364.472Z M251 295C317.274 295 367.5 273.597 367.5 222.511C367.5 125.424 326.5 120.511 247 120.511C167.5 120.511 131 133.849 131 222.5C131 246.156 142.52 263.45 161.472 275.201L163.9 330.05C164.504 343.695 181.545 349.498 190.352 339.058L228.268 294.103C235.629 294.706 243.228 295 251 295Z" />
</svg>
