<svg width="480" height="480" viewBox="0 0 480 480" fill="#4843B7" xmlns="http://www.w3.org/2000/svg">
<path d="M268.44 150.441C261.799 148.719 254.884 152.198 252.97 158.174L202.966 315.64C201.052 321.616 204.919 327.837 211.56 329.559C218.201 331.281 225.116 327.802 227.03 321.826L277.034 164.36C278.948 158.384 275.081 152.163 268.44 150.441ZM299.927 192.655C295.043 197.048 295.043 204.183 299.927 208.577L334.812 240L299.888 271.423C295.004 275.817 295.004 282.952 299.888 287.345C304.771 291.739 312.701 291.739 317.584 287.345L361.338 247.979C366.221 243.585 366.221 236.45 361.338 232.056L317.584 192.69C312.701 188.296 304.771 188.296 299.888 192.69L299.927 192.655ZM180.113 192.655C175.229 188.261 167.299 188.261 162.416 192.655L118.662 232.021C113.779 236.415 113.779 243.55 118.662 247.944L162.416 287.31C167.299 291.704 175.229 291.704 180.113 287.31C184.996 282.917 184.996 275.782 180.113 271.388L145.188 240L180.113 208.577C184.996 204.183 184.996 197.048 180.113 192.655Z M240 480C372.548 480 480 372.548 480 240C480 107.452 372.548 0 240 0C107.452 0 0 107.452 0 240C0 372.548 107.452 480 240 480ZM145 115H335C379.183 115 415 150.817 415 195V285C415 329.183 379.183 365 335 365H145C100.817 365 65 329.183 65 285V195C65 150.817 100.817 115 145 115Z"/>
</svg>
