<svg width="505" height="423" viewBox="0 0 505 423" fill="#bfcf0f xmlns="http://www.w3.org/2000/svg">
<path d="M441.987 270.483C417.588 338.319 370.243 378.707 310.5 387.428M434.306 112.154C400.254 46.1383 331.398 1 252 1C157.345 1 82.0482 63.5436 67.1603 112.773M410.551 267.368C396.258 317.117 360.927 344.659 300.534 365.524M400.755 132.478C373.719 78.2505 317.71 41 253 41C162.311 41 123.374 82.5977 103.289 122.798M157.206 323.133C156.627 337.147 173.885 344.218 183.306 333.826M504.5 192C504.5 151.241 474.208 117.557 434.909 112.233C400.83 45.889 331.716 0.5 252 0.5C204.389 0.5 161.669 16.2862 129.033 38.249C96.5401 60.1162 73.993 88.1432 66.6077 112.875C29.2636 119.86 1 152.629 1 192C1 236.459 37.0411 272.5 81.5 272.5C88.9858 272.5 94.1727 270.222 97.6876 266.035C101.18 261.874 102.961 255.898 103.809 248.626C104.658 241.347 104.578 232.695 104.289 223.125C104.215 220.676 104.127 218.168 104.038 215.606C103.777 208.139 103.5 200.216 103.5 192C103.5 181.491 104.287 171.454 105.009 162.243C105.044 161.793 105.079 161.345 105.114 160.899C105.861 151.337 106.494 142.68 106.015 135.399C105.716 130.854 104.982 126.809 103.55 123.395C113.521 103.326 128.168 82.8976 151.602 67.465C175.116 51.9806 207.516 41.5 253 41.5C317.14 41.5 372.707 78.209 399.836 131.764C399.683 132.936 399.567 134.148 399.485 135.399C399.006 142.68 399.639 151.337 400.386 160.899C400.421 161.345 400.456 161.792 400.491 162.242C401.213 171.453 402 181.49 402 192C402 200.216 401.723 208.138 401.462 215.604C401.373 218.167 401.285 220.676 401.211 223.125C400.922 232.695 400.842 241.347 401.691 248.626C402.539 255.898 404.32 261.874 407.812 266.035C408.431 266.772 409.102 267.45 409.828 268.067C405.192 283.859 398.409 297.379 389.354 309.144C370.235 333.983 340.935 351.065 300.125 365.136C291.85 357.4 279.376 352.5 265.5 352.5C240.773 352.5 220.5 368.059 220.5 387.5C220.5 406.941 240.773 422.5 265.5 422.5C290.043 422.5 310.198 407.172 310.497 387.934C370.59 379.19 418.137 338.535 442.566 270.349C478.074 261.966 504.5 230.069 504.5 192ZM67.7125 112.676C75.1593 88.3554 97.4315 60.7217 129.592 39.0787C162.081 17.2138 204.611 1.5 252 1.5C331.083 1.5 399.681 46.3899 433.704 112.079C430.523 111.697 427.284 111.5 424 111.5C415.075 111.5 409.149 113.761 405.346 117.951C402.529 121.055 400.925 125.168 400.091 130.066C372.57 76.8636 317.032 40.5 253 40.5C207.357 40.5 174.757 51.0194 151.052 66.6298C127.714 81.999 113.036 102.278 103.018 122.222C102.244 120.642 101.299 119.213 100.154 117.951C96.3511 113.761 90.4247 111.5 81.5 111.5C76.7992 111.5 72.1925 111.903 67.7125 112.676ZM390.146 309.754C399.213 297.974 406.009 284.466 410.672 268.738C413.977 271.192 418.329 272.5 424 272.5C429.978 272.5 435.804 271.848 441.41 270.612C417.04 338.104 369.894 378.228 310.494 386.923C310.33 378.978 306.779 371.706 300.934 365.914C341.574 351.847 370.931 334.718 390.146 309.754ZM127.5 191.5C127.5 216.251 139.632 238.751 159.49 255.636L156.706 323.113C156.108 337.594 173.942 344.9 183.676 334.162L228.194 285.055C235.115 286.005 242.234 286.5 249.5 286.5C316.755 286.5 371.5 244.077 371.5 191.5C371.5 138.923 316.755 96.5 249.5 96.5C182.245 96.5 127.5 138.923 127.5 191.5ZM226.998 284.886L182.936 333.49C173.829 343.536 157.146 336.701 157.705 323.154L160.458 256.448C177.857 270.902 200.989 281.108 226.998 284.886Z" />
</svg>
