<svg width="480" height="480" viewBox="0 0 480 480" fill="#2d8cff" xmlns="http://www.w3.org/2000/svg">
<path d="M240 480C372.548 480 480 372.548 480 240C480 107.452 372.548 0 240 0C107.452 0 0 107.452 0 240C0 372.548 107.452 480 240 480ZM310.6 322C308.5 326.2 305.1 329.5 301 331.6C296.3 334 290.1 334 277.8 334H165.3C133 334 116.8 334 104.5 327.7C93.6 322.2 84.8 313.3 79.3 302.4C73 290 73 273.9 73 241.5V182.3C73 169.9 73 163.8 75.4 159C77.5 154.8 80.9 151.5 85 149.4C89.7 147 95.9 147 108.2 147H220.6C252.9 147 269.1 147 281.4 153.3C292.3 158.8 301.1 167.7 306.6 178.6C312.9 191 312.9 207.2 312.9 239.5V298.7H313C313 311.1 313 317.2 310.6 322ZM405.6 323.9C402.8 329.7 396.3 332.7 390.1 331.2C387.1 330.4 383.3 327.3 375.7 321L345 295.2C340 291 337.5 288.9 335.4 286.5C331.4 281.7 328.6 275.9 327.5 269.7C327 266.6 327 263.3 327 256.8V223.499C327 215.2 327 212.2 328.1 208.1C329.3 203.8 331.2 199.7 333.7 196C336.1 192.5 338.4 190.5 344.9 185.2L375.7 159.5L376.109 159.161C383.434 153.088 387.056 150.085 390.1 149.3C396.3 147.8 402.8 150.8 405.6 156.6C407 159.4 407 164.3 407 174.2V306.3C407 316.1 407 321 405.6 323.9Z"/>
</svg>
