<svg width="480" height="480" viewBox="0 0 480 480" fill="#184681" xmlns="http://www.w3.org/2000/svg">
<path d="M240 480C372.548 480 480 372.548 480 240C480 107.452 372.548 0 240 0C107.452 0 0 107.452 0 240C0 372.548 107.452 480 240 480ZM395 121.034H340C331.688 121.034 325 114.116 325 105.517C325 96.9181 331.688 90 340 90H405C416.062 90 425 99.2457 425 110.69V177.931C425 186.53 418.312 193.448 410 193.448C401.688 193.448 395 186.53 395 177.931V121.034ZM85 137.845V194.741C85 203.341 78.3125 210.259 70 210.259C61.6875 210.259 55 203.341 55 194.741V127.5C55 116.056 63.9375 106.81 75 106.81H140C148.312 106.81 155 113.728 155 122.328C155 130.927 148.312 137.845 140 137.845H85ZM150.5 220.603C133.938 220.603 120.5 206.703 120.5 189.569C120.5 172.435 133.938 158.534 150.5 158.534C167.063 158.534 180.5 172.435 180.5 189.569C180.5 206.703 167.063 220.603 150.5 220.603ZM100.625 275.754C100.625 256.746 115.563 241.293 133.938 241.293H177.313C183 241.293 188.438 242.78 193.125 245.431C172.875 253.125 157.375 270.97 152.375 293.017H117.313C108.063 293.017 100.625 285.259 100.625 275.754ZM363.938 293.017H328.875C323.875 270.97 308.375 253.125 288.125 245.431C292.813 242.78 298.188 241.293 303.938 241.293H347.313C365.688 241.293 380.625 256.681 380.625 275.754C380.625 285.323 373.125 293.017 363.938 293.017ZM273.125 262.629C289.375 265.474 302.688 277.306 308.063 293.017C309.75 297.866 310.625 303.103 310.625 308.534C310.625 317.134 303.938 324.052 295.625 324.052H185.625C177.313 324.052 170.625 317.134 170.625 308.534C170.625 303.103 171.5 297.866 173.188 293.017C178.563 277.306 191.875 265.474 208.125 262.629C210.563 262.177 213.063 261.983 215.625 261.983H265.625C268.188 261.983 270.688 262.177 273.125 262.629ZM330.625 220.603C314.063 220.603 300.625 206.703 300.625 189.569C300.625 172.435 314.063 158.534 330.625 158.534C347.188 158.534 360.625 172.435 360.625 189.569C360.625 206.703 347.188 220.603 330.625 220.603ZM240.625 158.534C262.688 158.534 280.625 177.091 280.625 199.914C280.625 222.737 262.688 241.293 240.625 241.293C218.563 241.293 200.625 222.737 200.625 199.914C200.625 177.091 218.563 158.534 240.625 158.534ZM325 361.552C325 352.953 331.688 346.035 340 346.035H395V289.138C395 280.539 401.688 273.621 410 273.621C418.312 273.621 425 280.539 425 289.138V356.379C425 367.823 416.062 377.069 405 377.069H340C331.688 377.069 325 370.151 325 361.552ZM85 302.069V358.966H140C148.312 358.966 155 365.884 155 374.483C155 383.082 148.312 390 140 390H75C63.9375 390 55 380.754 55 369.31V302.069C55 293.47 61.6875 286.552 70 286.552C78.3125 286.552 85 293.47 85 302.069Z" />
</svg>
