<svg width="480" height="480" viewBox="0 0 480 480" fill="#184681" xmlns="http://www.w3.org/2000/svg">
<circle cx="240" cy="240" r="240" fill="#fff"/>
<path d="M154 290C176.091 290 194 267.614 194 240C194 212.386 176.091 190 154 190C131.909 190 114 212.386 114 240C114 267.614 131.909 290 154 290Z M240 480C372.548 480 480 372.548 480 240C480 107.452 372.548 0 240 0C107.452 0 0 107.452 0 240C0 372.548 107.452 480 240 480ZM154 330C109.817 330 74 289.706 74 240C74 190.294 109.817 150 154 150C198.183 150 234 190.294 234 240C234 289.706 198.183 330 154 330ZM247 150H252.798C262.354 150 271.339 154.553 276.99 162.259L279 165C290.767 157.342 312.429 150 327 150C370.886 150 406.519 189.755 406.995 239H407V330H397C380.431 330 367 316.569 367 300V239H366.992C366.566 211.847 348.824 190 327 190C305.176 190 287.434 211.847 287.008 239H287V300C287 316.569 273.569 330 257 330H247V150Z"/>
</svg>
