<svg width="480" height="480" viewBox="0 0 480 480" fill="#4ea6ca" xmlns="http://www.w3.org/2000/svg">
<path d="M240 480C372.548 480 480 372.548 480 240C480 107.452 372.548 0 240 0C107.452 0 0 107.452 0 240C0 372.548 107.452 480 240 480ZM158.845 90.8335C170.211 87.7281 182.105 93.5287 186.617 104.427V104.485L210.053 160.733C214.037 170.283 211.284 181.298 203.257 187.86L174.371 211.473C193.882 252.721 227.279 286.118 268.527 305.629L292.198 276.743C298.702 268.716 309.775 265.963 319.326 269.947L375.573 293.383C386.471 297.895 392.272 309.789 389.166 321.155L375.105 372.716C372.292 382.91 363.035 390 352.488 390C207.534 390 90 272.466 90 127.512C90 116.965 97.0895 107.708 107.284 104.895L158.845 90.8335Z"/>
</svg>
