<svg width="480" height="480" viewBox="0 0 480 480" fill="#58A3FF" xmlns="http://www.w3.org/2000/svg">
<path d="M240 480C372.548 480 480 372.548 480 240C480 107.452 372.548 0 240 0C107.452 0 0 107.452 0 240C0 372.548 107.452 480 240 480ZM90 189.174C90 155.941 118.502 129 153.66 129H326.34C361.498 129 390 155.941 390 189.174V260.63C390 293.863 361.498 320.804 326.34 320.804H247.139L196.134 375.183C189.015 382.774 175.739 378.319 175.277 368.184L173.118 320.804H153.66C118.502 320.804 90 293.863 90 260.63V189.174Z"/>
</svg>
