<svg width="334" height="187" viewBox="0 0 334 187" fill="none" xmlns="http://www.w3.org/2000/svg">
<rect width="334" height="187" fill="#F5F5F5"/>
<path d="M240 151.7C240 164.1 240 170.2 237.6 175C235.5 179.2 232.1 182.5 228 184.6C223.3 187 217.1 187 204.8 187H92.3C60 187 43.8 187 31.5 180.7C20.6 175.2 11.8 166.3 6.29999 155.4C-1.23978e-05 143 0 126.9 0 94.5V35.3C0 22.9 -6.19888e-06 16.8 2.39999 12C4.49999 7.8 7.9 4.49999 12 2.39999C16.7 -6.19888e-06 22.9 0 35.2 0H147.6C179.9 0 196.1 -1.23978e-05 208.4 6.29999C219.3 11.8 228.1 20.7 233.6 31.6C239.9 44 239.9 60.2 239.9 92.5V151.7H240ZM334 159.3C334 169.1 334 174 332.6 176.9C329.8 182.7 323.3 185.7 317.1 184.2C314.1 183.4 310.3 180.3 302.7 174L272 148.2C267 144 264.5 141.9 262.4 139.5C258.4 134.7 255.6 128.9 254.5 122.7C254 119.6 254 116.3 254 109.8V76.5C254 68.2 254 65.2 255.1 61.1C256.3 56.8 258.2 52.7 260.7 49C263.1 45.5 265.4 43.5 271.9 38.2L302.7 12.5C310.3 6.2 314 3.09999 317.1 2.29999C323.3 0.799988 329.8 3.80001 332.6 9.60001C334 12.4 334 17.3 334 27.2V159.3Z"/>
</svg>
