<svg width="400" height="100" viewBox="0 0 400 100" fill="#0B5CFF" xmlns="http://www.w3.org/2000/svg">
<path d="M22.5277 100L18.0208 99.77C10.4438 99.0892 5.11972 93.1647 4.70909 84.9647L4.50472 79.954L58.3701 20.046H18.0208L13.5167 19.8191C6.14317 19.3621 0.819068 13.2137 0.204376 5.01074L0 0H67.3839L71.8877 0.229981C79.4649 0.68383 84.7918 6.83533 85.2019 15.0353L85.4053 20.046L31.5415 79.954H71.8877L76.3946 80.1809C83.9718 80.8648 89.0922 86.7893 89.7088 94.9893L89.9122 100H22.5277Z M224.475 0C235.942 0 247.413 4.78378 256.22 14.5753C273.835 33.9374 273.835 65.5995 256.22 85.1855C238.606 104.775 210.344 104.775 192.726 85.1855C175.115 65.5995 175.115 34.1674 192.726 14.5753C201.533 4.78378 213.004 0 224.475 0ZM205.427 71.0641C215.871 82.6801 233.075 82.6801 243.523 71.0641C254.17 59.218 254.17 40.3158 243.523 28.6998C233.075 17.0837 215.871 17.0837 205.427 28.6998C194.98 40.3158 194.98 59.448 205.427 71.0641Z M162.007 14.5753C153.2 4.78378 141.729 0 130.258 0C118.791 0 107.32 4.78378 98.516 14.5753C80.8984 34.1674 80.8984 65.5995 98.516 85.1855C116.127 104.775 144.393 104.775 162.007 85.1855C179.618 65.5995 179.618 33.9374 162.007 14.5753ZM149.306 71.0641C138.862 82.6801 121.658 82.6801 111.214 71.0641C100.766 59.448 100.766 40.3158 111.214 28.6998C121.658 17.0837 138.862 17.0837 149.306 28.6998C159.754 40.3158 159.754 59.218 149.306 71.0641Z M327.702 39.862C327.495 36.2189 327.085 32.8028 325.448 29.8405C322.375 23.9191 316.434 19.8191 310.291 20.046C303.53 20.046 297.796 24.1459 294.726 30.0674C293.086 33.0297 292.676 36.4458 292.473 40.092L292.269 45.1027V79.954L292.063 84.9647C291.653 93.3947 286.326 99.3161 278.749 99.77L274.245 100V0C278.749 0 286.532 2.50533 290.016 6.83529C295.75 2.50533 302.713 0 310.084 0C320.941 0 330.565 5.23762 337.119 13.4376C343.88 5.23762 353.507 0 364.158 0C383.819 0 400 17.7675 400 39.862V99.77L395.493 99.5461C387.916 99.0892 382.589 92.9377 382.179 84.7378L381.975 79.7271V44.8758L381.772 39.862C381.565 36.2189 380.952 32.8028 379.519 29.8405C376.445 23.9191 370.505 19.8191 363.951 19.8191C357.194 19.8191 351.46 23.9191 348.387 29.8405C346.747 32.8028 346.337 36.2189 346.133 39.862L345.93 44.8758V99.77L341.423 99.5461C334.049 98.8623 328.519 92.9377 328.109 84.7378L327.905 79.7271V44.8758L327.702 39.862Z" />
</svg>
