<svg width="480" height="480" viewBox="0 0 480 480" fill="#184681" xmlns="http://www.w3.org/2000/svg">
<path d="M275.8 282.5C277 280.1 277 277.05 277 270.85H276.95V241.25C276.95 225.1 276.95 217 273.8 210.8C271.05 205.35 266.65 200.9 261.2 198.15C255.05 195 246.95 195 230.8 195H174.6C168.45 195 165.35 195 163 196.2C160.95 197.25 159.25 198.9 158.2 201C157 203.4 157 206.45 157 212.65V242.25C157 258.45 157 266.5 160.15 272.7C162.9 278.15 167.3 282.6 172.75 285.35C178.9 288.5 187 288.5 203.15 288.5H259.4C265.55 288.5 268.65 288.5 271 287.3C273.05 286.25 274.75 284.6 275.8 282.5Z M323.3 283.45C324 282 324 279.55 324 274.65V208.6C324 203.65 324 201.2 323.3 199.8C321.9 196.9 318.65 195.4 315.55 196.15C314.028 196.543 312.217 198.044 308.555 201.08L308.35 201.25L292.95 214.1C289.7 216.75 288.55 217.75 287.35 219.5C286.1 221.35 285.15 223.4 284.55 225.55C284 227.6 284 229.1 284 233.25V249.9C284 253.15 284 254.8 284.25 256.35C284.8 259.45 286.2 262.35 288.2 264.75C289.25 265.95 290.5 267 293 269.1L308.35 282C312.15 285.15 314.05 286.7 315.55 287.1C318.65 287.85 321.9 286.35 323.3 283.45Z M240 480C372.548 480 480 372.548 480 240C480 107.452 372.548 0 240 0C107.452 0 0 107.452 0 240C0 372.548 107.452 480 240 480ZM388.5 159.45V198.1C388.5 200.8 386.5 203.05 383.85 203.35C365.55 205.6 351.4 221.25 351.4 240.2C351.4 259.15 365.55 274.75 383.85 277.05C386.5 277.35 388.5 279.65 388.5 282.3V320.95C388.5 323.95 386.05 326.4 383.05 326.4H97.45C94.45 326.4 92 323.95 92 320.95V282.3C92 279.65 94 277.4 96.65 277.05C114.95 274.8 129.1 259.15 129.1 240.2C129.1 221.25 114.95 205.65 96.65 203.35C94 203.05 92 200.75 92 198.1V159.45C92 156.45 94.45 154 97.45 154H383.05C386.05 154 388.5 156.45 388.5 159.45Z"/>
</svg>
