<svg width="480" height="480" viewBox="0 0 480 480" fill="#09a7aa" xmlns="http://www.w3.org/2000/svg">
<path d="M240 480C372.548 480 480 372.548 480 240C480 107.452 372.548 0 240 0C107.452 0 0 107.452 0 240C0 372.548 107.452 480 240 480ZM419.906 219.658C419.906 232.031 410.53 241.602 399.904 241.602V241.533H379.902L380.34 351.045C380.465 375.312 362.526 395 340.336 395H140.007C117.942 395 100.003 375.381 100.003 351.25V241.602H80.0017C68.7507 241.602 60 231.963 60 219.658C60 213.506 61.8752 208.037 66.2505 203.252L226.577 50.4688C230.952 45.6836 235.952 45 240.328 45C244.703 45 249.704 46.3672 253.454 49.7852L413.03 203.252C418.03 208.037 420.531 213.506 419.906 219.658Z M290.731 342.658C292.455 339.321 292.455 335.08 292.455 326.46H292.383V285.305C292.383 262.85 292.383 251.588 287.856 242.968C283.904 235.39 277.581 229.203 269.749 225.38C260.91 221 249.27 221 226.06 221H145.293C136.455 221 132 221 128.623 222.668C125.677 224.128 123.234 226.422 121.725 229.342C120 232.679 120 236.92 120 245.54V286.695C120 309.219 120 320.412 124.527 329.032C128.479 336.61 134.802 342.797 142.635 346.62C151.473 351 163.114 351 186.323 351H267.162C276 351 280.455 351 283.832 349.332C286.778 347.872 289.222 345.578 290.731 342.658Z M358.994 343.979C360 341.963 360 338.556 360 331.743V239.909C360 233.027 360 229.62 358.994 227.674C356.982 223.642 352.311 221.556 347.856 222.599C345.669 223.145 343.066 225.233 337.803 229.454L337.509 229.69L315.377 247.556C310.707 251.241 309.054 252.631 307.329 255.064C305.533 257.636 304.168 260.487 303.305 263.476C302.515 266.326 302.515 268.412 302.515 274.181V297.332C302.515 301.85 302.515 304.144 302.874 306.299C303.665 310.61 305.677 314.642 308.551 317.979C310.06 319.647 311.856 321.107 315.449 324.027L337.509 341.963C342.97 346.342 345.701 348.497 347.856 349.053C352.311 350.096 356.982 348.011 358.994 343.979Z" />
</svg>
