<svg width="480" height="480" viewBox="0 0 480 480" fill="#817DF8" xmlns="http://www.w3.org/2000/svg">
<circle cx="240" cy="240" r="240" fill="#fff"/>
<path d="M480 240C480 372.548 372.548 480 240 480C107.452 480 0 372.548 0 240C0 107.452 107.452 0 240 0C372.548 0 480 107.452 480 240ZM104 135V195C104 211.569 117.431 225 134 225H194C210.569 225 224 211.569 224 195V135C224 118.431 210.569 105 194 105H134C117.431 105 104 118.431 104 135ZM286 105C269.431 105 256 118.431 256 135V195C256 211.569 269.431 225 286 225H346C362.569 225 376 211.569 376 195V135C376 118.431 362.569 105 346 105H286ZM104 285V345C104 361.569 117.431 375 134 375H194C210.569 375 224 361.569 224 345V285C224 268.431 210.569 255 194 255H134C117.431 255 104 268.431 104 285ZM286 255C269.431 255 256 268.431 256 285V345C256 361.569 269.431 375 286 375H346C362.569 375 376 361.569 376 345V285C376 268.431 362.569 255 346 255H286Z" />
</svg>
