<svg width="480" height="480" viewBox="0 0 480 480" fill="none" xmlns="http://www.w3.org/2000/svg">
<path fill="#137C9C" d="M265 136C265 149.807 253.807 161 240 161C226.193 161 215 149.807 215 136C215 122.193 226.193 111 240 111C253.807 111 265 122.193 265 136Z M299 205C299 218.807 272.137 221 239 221C205.863 221 181 218.807 181 205C181 191.193 205.863 171 239 171C272.137 171 299 191.193 299 205Z M240 480C372.548 480 480 372.548 480 240C480 107.452 372.548 0 240 0C107.452 0 0 107.452 0 240C0 372.548 107.452 480 240 480ZM240 347C226.193 347 215 335.807 215 322C215 308.193 226.193 297 240 297C253.807 297 265 308.193 265 322C265 335.807 253.807 347 240 347ZM299 391C299 404.807 272.137 407 239 407C205.863 407 181 404.807 181 391C181 377.193 205.863 357 239 357C272.137 357 299 377.193 299 391ZM347 317C333.193 317 322 305.807 322 292C322 278.193 333.193 267 347 267C360.807 267 372 278.193 372 292C372 305.807 360.807 317 347 317ZM406 356C406 369.807 379.137 372 346 372C312.863 372 288 369.807 288 356C288 342.193 312.863 322 346 322C379.137 322 406 342.193 406 356ZM133 312C119.193 312 108 300.807 108 287C108 273.193 119.193 262 133 262C146.807 262 158 273.193 158 287C158 300.807 146.807 312 133 312ZM192 356C192 369.807 165.137 372 132 372C98.8629 372 74 369.807 74 356C74 342.193 98.8629 322 132 322C165.137 322 192 342.193 192 356ZM170 90H310C332.091 90 350 107.909 350 130V200C350 222.091 332.091 240 310 240H170C147.909 240 130 222.091 130 200V130C130 107.909 147.909 90 170 90Z"/>
</svg>
